<?xml version="1.0" encoding="utf-8"?>
<!-- Generator: Adobe Illustrator 23.0.1, SVG Export Plug-In . SVG Version: 6.00 Build 0)  -->
<svg version="1.1" id="Artboard_1_1_" xmlns="http://www.w3.org/2000/svg" xmlns:xlink="http://www.w3.org/1999/xlink" x="0px"
	 y="0px" viewBox="0 0 262 250" style="enable-background:new 0 0 262 250;" xml:space="preserve">
<style type="text/css">
	.st0{opacity:0.549;}
	.st1{fill:#669833;}
	.st2{fill:#659832;}
	.st3{fill:#FDFDFD;}
	.st4{fill:#669933;}
	.st5{fill:#FBFCFA;}
	.st6{fill:#E460E4;}
	.st7{fill:#669934;}
	.st8{fill:#699A37;}
	.st9{fill:#E562E5;}
	.st10{fill:#679935;}
	.st11{fill:#E563E5;}
	.st12{fill:#E561E5;}
	.st13{fill:#E878E8;}
	.st14{fill:#699B37;}
	.st15{fill:#6B9C3A;}
	.st16{fill:#E561E6;}
	.st17{fill:#E668E6;}
	.st18{fill:#E45FE5;}
	.st19{fill:#6D9D3C;}
	.st20{fill:#E564E5;}
	.st21{fill:#FBF1FB;}
	.st22{fill:#6C9C3B;}
	.st23{fill:#E876E8;}
	.st24{fill:#E565E4;}
	.st25{fill:#F3BC44;}
	.st26{fill:#F5D3F4;}
	.st27{fill:#FEC04A;}
	.st28{fill:#F7C151;}
	.st29{fill:#FAB937;}
	.st30{fill:#FBBD44;}
	.st31{fill:#F8B938;}
	.st32{fill:#FCBD44;}
	.st33{fill:#F5BD46;}
	.st34{fill:#FDBF47;}
	.st35{fill:#E65AE7;}
	.st36{fill:#FEFEFD;}
	.st37{fill:#FDFDFC;}
	.st38{fill:#FCFCFB;}
	.st39{fill:#FAFBF8;}
	.st40{fill:#FDFEFD;}
	.st41{fill:#FDF9FD;}
	.st42{fill:#FBEFFB;}
	.st43{fill:#FCF6FC;}
	.st44{fill:#FCF5FC;}
	.st45{fill:#FBF3FB;}
	.st46{fill:#F8ECF7;}
	.st47{fill:#FAE9F9;}
	.st48{fill:#FCF7FC;}
	.st49{fill:#FBF0FB;}
	.st50{fill:#FBEFFA;}
	.st51{fill:#FAEEFA;}
</style>
<g id="Layer_1_copy_xA0_Image_1_" class="st0">
	<g>
		<path class="st1" d="M192.51,221.11c-2.7-1.96-2.72-4.67-1.9-7.43c2.35-7.9,6.12-15.49,11.63-22.7
			c-0.54,10.22-8.33,19.73-8.83,29.92C193.11,220.96,192.81,221.03,192.51,221.11z"/>
		<path class="st2" d="M204.23,99.64c1.58,4.84-0.89,7.43-4.74,9.96c-5.29,3.48-11.74,5.39-15.53,11.02
			c-0.55,0.81-1.4,1.42-1.2,2.98c3.88,0.14,7.86-1.51,11.79-0.2c1.46,0.27,2.88,0.57,2.53,2.6c0.77,6.56-2.77,10.58-7.54,14.52
			c-5.17,4.26-2.55,2.13-7.51,7.26c-1.66,1.72-2.15,3.52-5.21,8.31c-1.92,2.11-3.15,2.49-3.29,2.3c0.33-9.45,6.74-15.16,12.96-20.95
			c1.83-1.7,3.78-3.26,5.07-5.44c0.78-1.32,1.48-2.77,0.52-4.2c-1.13-1.7-2.97-1.35-4.54-0.9c-4.68,1.35-7.65,4.59-9.13,9.12
			c-1.03,3.16-2.23,6.26-3.3,9.41c-0.43,1.28-1,2.68-2.58,2.64c-1.87-0.05-2.31-1.63-2.58-3.15c-0.21-1.15-0.46-2.44-0.03-3.46
			c2.32-5.47-1.4-8.68-4.42-12.14c-0.85-0.98-1.88-2.18-3.37-1.47c-1.32,0.63-1.65,2.11-1.64,3.44c0.03,4.37,1.78,8.08,4.93,11.05
			c2.18,2.06,4.36,4.11,6.23,6.44c2.89,3.6,3,7.84,0.41,11.4c-0.73-0.34-1.71-4.59-1.82-5.07c-1.51-6.45-7.39-7.06-11.29-11.65
			c-5-5.88-7.06-15.13-0.48-21.9c0.58-1.14,1.44-1.45,2.61-0.91c2.13,0.77,4.67,0.42,6.34,2.44c0.49,0.59,1.17,1.39,2.02,0.55
			c0.67-0.67,0.54-1.63-0.04-2.25c-1.75-1.86-2.08-4.63-3.57-6.4c-4.47-5.32-3.36-10.96-1.95-16.78c0.19-0.41,0.49-0.55,0.92-0.38
			c5.62-0.17,9.13,3.93,13.79,7.39c0.72-7.25-0.59-13.22-5.73-17.39c-7.15-5.8-8.63-12.48-4.86-20.63c0.22-0.67,0.99-0.37,1.36-0.77
			c3.05-0.59,6.1-0.94,9.26,0.17c-3-16.01-0.01-32,11.94-35.03c2.6-0.4,5.19-1.12,7.81-0.15c6.54,4.72,5.7,11.59,5.04,18.23
			c-0.54,5.42-2.83,10.4-5.79,15.92c3.65-0.44,6.18-2.66,8.99-1.12c0.76,0.45,1.98,0.04,2.36,1.23c2.17,7.81-0.49,13.52-6.7,18.65
			c-5.24,4.33-10.95,8.54-13.88,15.58c4.51-3.29,9.38-3.94,14.53-2.8C203.95,97.67,204.36,98.52,204.23,99.64z"/>
		<path class="st2" d="M122.07,125c-0.48,6.47-6.8,7.44-10.47,11.86c-5.63,6.78-8.68,13.97-10.17,22.98
			c-1.87,11.29,1.11,21.16,1.54,32.63c0.27,7.08-0.7,14.16-1.13,21.23c-0.07,1.11-0.59,2.26-1.17,3.24
			c-0.69,1.17-3.47,9.06-3.28,1.64c0.04-1.55,0.1-5.95,0.13-7.12c0.19-7.91-1.2-11.58-0.77-19.47c0.42-7.71-1.58-15-3.32-22.32
			c-0.74-3.12-0.48-6.34-2.02-9.48c-1.11-2.27-2.05-2.73-3.94-2.19c-10.51,3-19.28-1.35-28.1-6.2c-6.21-3.41-6.22-9.37-11.05-14.05
			c-4.05-3.92-9.09-10.79-13.78-16.17c5.26-1.37,5.32,3.59,9.47,6.67c6.17,4.59,9.84,11.38,15.33,16.55
			c8.45,7.96,18.41,11.34,30.26,10.23c-2.13-13.72-9.53-21.8-22.76-26.6c-11.67-4.24-11.76,3.74-21.29-5.07
			c-2.36-2.19-13.84-8.04-14.36-11.99c16.1,11.3,32.7,7.62,49.91,17.91c-1.28-7.4-2.58-17.25-1.16-24.78
			c4.78,17.45,8.4,36.03,17.5,51.1C99.77,140.56,113.69,135.66,122.07,125z"/>
		<path class="st2" d="M142.54,155.3c12.66-1.44,19.69,5.81,24.65,17.64c1.81-5.41,3.14-9.37,4.46-13.33
			c0.45-0.74,0.72-3.3,1.98-2.64c0,0,0,0,0,0c0.47,6.86-2.39,14.69-2.85,21.42c0.94,6.81,0.67,13.6-0.34,20.37
			c-1.96,4.95-0.72,9.64,1.03,14.36c0.61,1.65,2.8,4.02-0.03,5.05c-2.42,0.88-3.66-1.53-4.24-3.78c-0.5-1.92-0.5-1.92-1.44-5.73
			c-1.63-6.61-3.14-11.47-5.81-16.76c-1.28-2.52-3.66-4.25-6.34-5.43c-4.52-1.98-8.08-5.21-11-9.09
			c-4.96-6.59-4.53-13.71-1.66-20.98C141.13,155.55,141.66,155.18,142.54,155.3z"/>
		<path class="st3" d="M177.87,146.13c-0.66,0.38-2.81,3.79-3.09,7.65c-0.03-0.41-1.15,3.47-2.01,0.9
			c-1.17-4.45-1.17-4.45-3.73-7.62c-3.16-3.91-7.99-6.5-9.32-11.86c-0.28-1.11-0.62-2.21-0.82-3.34c-0.55-2.99,0.52-6.18,2.72-7.3
			c1.61-0.82,4.01-0.42,5.57,2.75c0.15,0.3,1.46,2.16,1.62,2.44c2.07,3.66,1.45,2.82,2.41,7.94c0.14,0.74,0.59,3.4,0.5,5.1
			c-0.08,1.48-0.14,1.09,0.54,3.53c0.45,1.62,1.11-1.61,1.54-2.58c2.58-5.92,2.69-13.15,8.99-17.11c1.68-1.06,3.01-1.37,5.44-2.16
			c1.64-0.53,4.03-0.85,5,1.17c0.94,1.96,0.62,4.09-0.83,6.04c-2.2,2.95-4.89,5.34-7.63,7.76
			C179.1,144.47,178.64,138.16,177.87,146.13z"/>
		<path class="st4" d="M97.93,172.89c5.44-2.93,13.92-6.46,17.41-10.68c5.42-6.57,5.94-14.77,8.71-22.23
			c4.18-11.24-0.18-16.41,11.28-25.05c-3.45,6.78-1.81,6.4-4.33,12.05c-4.24,9.49-4.68,18.5-6.9,28.74
			C122.42,163.48,106.18,172.93,97.93,172.89z"/>
		<path class="st5" d="M170.46,195.02c-0.76-6.81-0.56-9.28,0.74-16.05c0.53-0.33,1.06-0.65,1.59-0.98
			c0.14,0.09,0.38,0.17,0.39,0.28c0.05,0.44,0.32,0.68,0.46,0.44c2-3.43,4.49-6.48,7.26-9.31c0.93-0.95,1.8-1.89,3.08-2.42
			c2.53-1.05,5.16-2.04,7.4,0.2c2.37,2.37,0.95,4.9-0.32,7.29c-2.5,4.71-6.78,7.81-10.9,10.7c-4.71,3.3-7.47,7.29-8.23,12.84
			C171.57,198.46,170.82,194.58,170.46,195.02z"/>
		<path class="st6" d="M93.65,125.96c-1.16-0.02-2.32-0.02-3.48-0.07c-2.68-0.12-5.03-0.84-5.44-3.94
			c-0.38-2.91,0.19-5.43,3.81-5.71c1.63-0.13,2.23-1.2,1.49-2.27c-1.92-2.77-3.65-6.52-6.4-7.69c-5.2-2.23-5.85-2.4-3.68-8.3
			c0.42-0.69,1.02-1.04,1.83-1.02c2.2,0.4,5.24-1.26,6.02,2.6c0.27,1.35,1.27,0.5,1.95,0.32c3.44-0.94,7.19,0,7.61,3.19
			c0.45,3.42,2.34,8.68-4.8,10.21c5.99,2.76,4.34,6.8,3.21,10.74c-2.58,0-1.83-2.24-2.36-3.58c-0.45-1.14-0.79-2.26-2.36-1.79
			c-0.96,0.29-1.88,0.78-2.23,1.78c-0.53,1.54,0.73,1.91,1.74,2.48C91.86,123.65,94.03,123.53,93.65,125.96z"/>
		<path class="st7" d="M170.67,196.78c-1.42-4.31,2.02-6.32,6.79-9.78c4.01-2.91,7.82-6.05,11.19-9.69
			c0.67-0.72,1.25-1.56,1.73-2.42c1.15-2.03,2.8-4.53,0.6-6.31c-2.26-1.83-5.42-0.99-7.28,1.01c-3.58,3.83-10.02,13.95-14.9,10.38
			c-1.15-0.96,1.7-0.5,3.68-3.75c2.36-2.99,4.76-3.58,7.55-6.3c3.76-3.69,7.89-5.31,13.06-3.99c1.14,0.2,1.65,0.92,1.68,2.03
			c1.53,4.62-0.27,8.07-3.41,11.47C185.15,186.12,175.19,188.46,170.67,196.78z"/>
		<path class="st8" d="M136.39,213.82c-0.51-5.44-1.03-6.99,1.14-12.61c0.33-0.85,1.85-5.23,3.04-6.24
			c0.74-0.63-0.12,5.03-0.17,5.84c-0.53,8.08,2.12,12.28,0.9,20.34c-0.24,1.58-0.28,3.94-2.48,3.5c-1.64-0.33-2.7-2.15-2.48-4.32
			C136.55,218.38,136.39,216.38,136.39,213.82z"/>
		<path class="st9" d="M84.01,97.98c-0.37,0.76-1.05,0.99-1.83,1.02c-2.27-2.54-5.72-0.12-8.16-1.93c-0.56-0.7-0.56-1.4-0.01-2.1
			c0.77,0.32,1.46,0.69,1.84-0.58c2.1-7.06,2.12-7.05,9.36-6.44c0.62,0.05,1.27-0.12,2.02-0.2c-0.12-3.16-3.6-6.58,0.72-8.95
			c2.47-1.35,5.19-1.31,7.37,0.85c1.81,1.8,2.6,4.27,1.08,6.3c-1.42,1.9-2.79,5.22-6.41,3.04c0.94-1.53,2.65-2.49,3.25-4.24
			c0.39-1.13,0.46-2.42-1-2.81c-1.41-0.38-2.04,0.69-2.41,1.85c-0.58,1.77,1.08,3.46,0.23,5.25c-0.57,0.31-1.66,0.75-1.62,0.9
			C89.49,94.03,85.93,95.55,84.01,97.98z"/>
		<path class="st10" d="M215.06,193.69c-1.07,4.85-3.47,7.67-5.37,10.58c-2.99,4.59-5.05,9.46-6.29,14.71
			c-0.41,1.74-1.12,2.8-2.94,2.54c-2.17-0.31-2.17-1.44-1.76-3.53C200.68,207.93,205.9,200.25,215.06,193.69z"/>
		<path class="st11" d="M74.08,69.08c-4.78,3.4-6.37-2.12-9.82-2.92c1.53-2.7,4.07-2.13,5.9-3.19c0.31-1.64-3.82-3.39-0.78-4.5
			c3.09-1.13,6.73-4.8,10.18-0.83c2.01,2.32,3.08,5.24-0.37,7.6C77.65,66.73,75.68,67.66,74.08,69.08z"/>
		<path class="st12" d="M78.01,92.57c0,0.7,0.01,1.4,0.01,2.1c0.64,4.91-5.5,6.08-5.86,10.51c-0.02,0.24-1.48,0.42-2.28,0.51
			c-2.09,0.24-3.93-0.27-5.25-2.04c-0.47-0.64-0.32-1.33,0.3-1.69c1.9-1.11,2.63,1.72,4.81,1.36c-1.27-4.22-7.9-7.75-2-12.78
			c2.19-2.53,4.92-1.28,7.5-1.05C76.99,89.78,77.76,90.94,78.01,92.57z"/>
		<path class="st12" d="M65.83,74.45c-0.99-5,3.37-4.92,6.53-5.55c2.73-0.55,8.49,4.81,8.4,7.29c-0.07,1.89-5.47,5.78-7.96,5.74
			C68.13,81.85,65.85,79.53,65.83,74.45z"/>
		<path class="st13" d="M77.93,69.46c-0.14-3.72,2.92-3.2,5.1-3.85c0.15,2.88,2.43,1.55,3.77,1.79c4.23,0.75,5.9,5.95,6.15,10.94
			c-2.22-4.2-6.34-9.42-9.09-7.23c-2.11,1.68-0.08,5.01,3,7c-4.75,0.83-7.05-0.62-7.33-4.79C79.44,71.82,79.35,70.38,77.93,69.46z"
			/>
		<path class="st12" d="M51.8,53.37c-3.68-0.05-6.74-2.88-6.16-6.23c0.36-2.08,0.72-4.85,3.93-4.89c2.8-0.04,7.24,3.97,7.14,6.36
			C56.56,52.08,55.19,53.41,51.8,53.37z"/>
		<path class="st14" d="M66.31,203.99c7.49-0.22,14.18,6.2,14.24,12.51c0.01,1.09-0.08,1.99-1.22,2.38
			c-1.32,0.45-2.62-0.16-2.93-1.23C74.75,212.17,71.52,207.79,66.31,203.99z"/>
		<path class="st15" d="M155.15,201.42c-0.98,5.61-1.46,11.18-1.23,16.81c0.06,1.52,0.15,3.24-1.94,3.38
			c-2.11,0.15-1.97-1.56-2.33-3.07C148.02,211.72,151.05,206.42,155.15,201.42z"/>
		<path class="st16" d="M76.44,111.07c-0.12,4.4-2.93,7.58-6.23,7.3c-3.8-0.33-4.89-2.84-4.7-6.24c0.13-2.48,4.89-5.93,7.95-5.57
			C76.4,106.91,76.02,109.49,76.44,111.07z"/>
		<path class="st12" d="M59.8,65.07c3.59-0.16,5.34,2.01,6.46,5.05c0.82,2.24,1.49,4.56-0.58,6.37c-2.17,1.9-4.86,2.11-7.45,1.01
			c-2.88-1.22-2.85-3.95-2.42-6.39c0.36-2.07,1.4-4.02,2.14-6.03C58.56,64.49,59.18,64.48,59.8,65.07z"/>
		<path class="st17" d="M59.8,65.07c-0.62,0-1.24,0.01-1.86,0.01c-1.65-2.16-6.63-0.54-5.87-5.72c0.51-3.47,2.45-6.41,5.98-6.1
			c3.49,0.31,3.38,2.96,3.51,5.8C61.69,61.46,59.51,62.84,59.8,65.07z"/>
		<path class="st18" d="M60.03,52.51c-0.51-4.16,2.3-5.5,6.39-5.52c3.65-0.02,4.97,2.55,5.33,5.45c0.38,3.12-3.52,5.95-7.37,5.76
			C60.71,58.01,59.89,57.06,60.03,52.51z"/>
		<path class="st19" d="M114.4,196.78c2.58,6.55,2.37,12.21,3.54,17.57c0.26,1.18-0.4,2.36-1.79,2.51
			c-1.37,0.15-2.06-0.74-2.28-2.05C112.94,209.31,112.7,203.83,114.4,196.78z"/>
		<path class="st20" d="M97.61,99.05c-3.79,0-5.7-1.95-5.44-4.58c0.28-2.8,2.55-4.6,5.73-4.29c2.58,0.25,5.38,0.79,5.02,4.15
			C102.57,97.59,100.08,98.97,97.61,99.05z"/>
		<path class="st21" d="M94.55,125.94c-1.04-1.54-2.66-1.76-4.32-1.91c-2.28-0.21-2.52-1.83-2.41-3.6c0.2-3.22,3.69-2.16,5.26-3.81
			c0.65-0.68,2.02,1.13,2.57,2.34c0.72,1.6-0.91,3.69,1.03,5.04C96.26,124.97,95.62,125.69,94.55,125.94z"/>
		<path class="st22" d="M185.85,205.12c0,3.96,0.07,7.2-0.03,10.44c-0.04,1.29-0.97,2.15-2.27,2.23c-1.24,0.07-1.63-0.99-1.95-1.95
			C180.11,211.35,182.48,208.42,185.85,205.12z"/>
		<path class="st23" d="M75.25,89.48c-2.52,0.23-5.11-0.1-7.5,1.05c-0.26-0.35-0.52-0.69-0.78-1.04c-0.33-0.23-0.44-0.46-0.33-0.69
			c0.11-0.23,0.21-0.35,0.32-0.35c2.74-3.22,1.27-4.11-2.18-3.99c-1.06,0.04-3.98-2.22-4.12-3.78c-0.15-1.66,2.9,1.09,4.11,1
			c2.36-0.16,5.57-0.02,5.38,2.8C69.86,88.82,72.85,88.57,75.25,89.48z"/>
		<path class="st24" d="M62.33,45.17c-0.01,0.17,0.05,0.42-0.03,0.49c-3.72,2.79-3.61-2.74-6.31-3c-1.55-0.15-1.1-2.94-0.12-4.31
			c1.68-2.33,4.32-1.43,6.47-1.09c2.34,0.37,1.86,2.21,1.15,3.91c-0.54,1.3,0.47,3.08-1.23,4.06c-1.47-1.25-0.63-3.48-2.71-5.52
			C60.16,42.37,61.34,43.73,62.33,45.17z"/>
		<path class="st25" d="M198.39,31.43c-2.55,2.93-5.24-0.87-7.82,0.15c0.56-0.31,1.58-0.6,1.6-0.93c0.13-2.64,0.96-4.68,4-4.3
			C199.44,26.76,197.79,29.67,198.39,31.43z"/>
		<path class="st9" d="M51.51,39.61c-0.69-0.69-1.46-1.32-2.04-2.1c-1.17-1.56-1.66-3.46-0.41-5.01c1.28-1.59,3.29-1.32,5.01-0.6
			c2.13,0.89,2.97,2.46,1.96,4.76c-0.26,0.59-0.34,1.26-0.51,1.9c-0.72,0.3-1.13-0.13-1.59-0.6c-0.49-0.5-0.31-1.71-1.36-1.47
			c-0.21,0.05,0.17,1.17,0.17,1.81C52.74,39.09,52.76,39.95,51.51,39.61z"/>
		<path class="st26" d="M51.51,39.61c0.13-0.1,0.32-0.17,0.37-0.3c0.81-1.91-3.18-4.24-0.35-5.33c3.67-1.42,1.98,3.55,4,4.58
			C54.54,40.22,53.43,41.48,51.51,39.61z"/>
		<path class="st27" d="M169.38,66.44c-0.46,0.26-0.91,0.51-1.36,0.77c-1.91-0.19-3.2-1.15-2.66-3.16c0.34-1.26,1.5-2.16,3.04-1.66
			C170.84,63.2,169.38,65.01,169.38,66.44z"/>
		<path class="st28" d="M197.08,126c-0.85-0.87-1.69-1.74-2.53-2.6c1.28-1.2,2.25-4.14,4.44-1.88
			C200.99,123.59,198.62,124.86,197.08,126z"/>
		<path class="st29" d="M208.98,65.7c-0.79-0.41-1.58-0.82-2.36-1.23c0.13-0.31,0.2-0.65,0.39-0.91c0.94-1.26,1.15-3.24,3.22-3.33
			c0.24-0.01,0.65,0.64,0.76,1.04C211.52,63.26,210.98,64.82,208.98,65.7z"/>
		<path class="st30" d="M204.23,99.64c-0.43-0.84-0.86-1.67-1.29-2.51c0.36-1.34,0.94-2.51,2.61-2.13c0.53,0.12,1.31,0.66,1.37,1.09
			C207.18,98.06,205.58,98.78,204.23,99.64z"/>
		<path class="st31" d="M161.09,120.66c-0.87,0.31-1.74,0.61-2.61,0.91c-0.73-0.87-2.79-0.9-1.89-2.76
			c0.44-0.92,1.41-1.38,2.47-1.32C161.13,117.62,161.26,119.06,161.09,120.66z"/>
		<path class="st32" d="M142.96,155.87c-0.53,0.37-1.07,0.74-1.6,1.12c-1.07-0.75-3.15-0.68-2.43-2.89
			c0.33-1.01,1.14-1.71,2.18-1.56C143.07,152.8,143.1,154.33,142.96,155.87z"/>
		<path class="st33" d="M193.46,167.96c-0.56-0.68-1.12-1.36-1.68-2.03c0.48-1.69,1.61-2.26,3.28-1.92c0.71,0.14,1.13,0.58,1.13,1.3
			C196.2,167.11,195.1,167.83,193.46,167.96z"/>
		<path class="st34" d="M164.81,97.84c-0.28,0.18-0.59,0.31-0.92,0.38c-1.94-0.02-2.91-0.8-1.95-2.77c0.61-1.26,1.77-1.43,2.96-0.84
			C167.11,95.72,164.5,96.75,164.81,97.84z"/>
		<path class="st35" d="M66.96,88.45c0,0.35,0.01,0.7,0.01,1.05c-0.66,0.07-1.33,0.27-1.96,0.19c-1.33-0.17-3.24,0.75-3.63-1.46
			c-0.21-1.18,0.08-2.42,1.75-1.22c0.51,0.37,0.86,1.1,1.4,1.28C65.27,88.53,66.14,88.41,66.96,88.45z"/>
		<path class="st36" d="M187.66,78.32c-4.79-12.12-8.73-23.86-3.47-36.37c1.23-2.93,3-5.54,5.55-6.76c4.93-2.36,8.8-2.15,10.16,3.83
			c1.22,5.35,0.71,10.53-1.5,15.52C194.86,62.49,191.24,70.39,187.66,78.32z"/>
		<path class="st37" d="M183.58,99.41c-0.51-4.03-0.36-7.57,1.74-10.99c4.34-7.05,8.36-14.29,14.91-19.67
			c1.61-1.33,3.34-2.88,5.2-1.45c1.55,1.19,1.71,3.44,1.15,5.49c-0.53,1.95-1.53,3.52-2.9,5.06
			C197.18,85.2,187.86,89.84,183.58,99.41z"/>
		<path class="st38" d="M183.12,83.94c-0.3,2.03-1.24,4.32-3.02,5.21c-1.69,0.85-2.44-1.69-3.51-2.81c-3.76-3.9-7.88-7.4-5.57-14.08
			c1.11-3.19,2.45-2.72,4.23-1.67C180.22,73.5,182.28,78.27,183.12,83.94z"/>
		<path class="st38" d="M182.83,117.48c-0.01-8.18,7.75-17.31,14.3-18.26c1.23-0.18,2.72-0.59,3.15,1.35
			c0.35,1.62,0.95,3.24-0.89,4.43c-2.63,1.69-5.19,3.48-7.85,5.12C188.64,111.9,185.37,113.13,182.83,117.48z"/>
		<path class="st39" d="M173.39,124.09c0.55-8.43-8.19-12.89-5.8-20.91C178.38,107.89,181.08,115.78,173.39,124.09z"/>
		<path class="st40" d="M165.41,193.27c-3.32-6.95-9.45-8.67-13.91-12.43c-5.17-4.36-9.35-9.63-6.02-17.54
			c0.9-2.13,1.52-3.18,3.73-2.25c5.24,2.21,9.75,4.9,12.12,10.75C163.96,178.26,166.79,184.49,165.41,193.27z"/>
		<path class="st41" d="M95.02,106.88c0.85,2.89,0.11,4.38-2.97,4.03c-2.01-0.23-4.8-0.78-4-3.02c0.79-2.18,1.6-5.83,4.81-5.78
			C95.69,102.16,95.21,105,95.02,106.88z"/>
		<path class="st42" d="M86.91,101.4c-0.07,2.09-0.3,2.99-1.24,3.08c-1.19,0.11-1.66-0.81-1.69-1.87c-0.03-0.96,0.59-1.56,1.48-1.58
			C86.4,101,86.89,101.64,86.91,101.4z"/>
		<path class="st43" d="M90.06,89.02c-0.87-1.89-2.38-3.6-1.59-5.96c0.71-2.12,1.89-3.54,4.35-2.82c2.26,0.67,2.43,2.58,2.02,4.41
			c-0.55,2.5-2.4,3.81-4.85,4.32C90,88.98,90.06,89.02,90.06,89.02z"/>
		<path class="st44" d="M82.33,90c2.1,0.19,3.3,1.44,3.09,3.22c-0.24,2.07-1.95,2.87-4.01,2.78c-1.24-0.05-2.58-0.24-2.17-1.84
			C79.69,92.43,79.6,90.01,82.33,90z"/>
		<path class="st45" d="M76.57,58.75c1.17,0.18,1.53,1.05,1.6,2.05c0.07,1.12,0.19,2.5-1.32,2.65c-1.11,0.11-1.54-0.98-1.68-1.97
			C75,60.27,75.27,59.23,76.57,58.75z"/>
		<path class="st21" d="M72.5,98.67c-3.02-0.28-4.12-2.04-4.22-4.39c-0.08-1.84,1.21-2.67,2.97-2.41c1.74,0.25,3.94,0.22,3.69,2.91
			C74.78,96.54,74.68,98.54,72.5,98.67z"/>
		<path class="st43" d="M68.02,75.24c0.13-3.09,0.54-4.48,3.33-1.97c0.88,0.79,3.46-1.4,4.17,1.48c0.28,1.13,2.63,1.65,1.47,3.09
			c-1.07,1.32-2.56,2.73-4.68,2.08C69.77,79.15,67.67,77.99,68.02,75.24z"/>
		<path class="st46" d="M51.4,42.35c1.71,1.04,3.52,1.48,3.33,3.58c-0.07,0.73-0.85,0.8-1.57,0.57
			C51.26,45.88,50.46,44.75,51.4,42.35z"/>
		<path class="st47" d="M71.14,114.5c-0.23,1.72-0.68,3.41-2.48,3.34c-2.1-0.08-2.3-2.03-2.45-3.71c-0.19-1.99,1.18-2.75,2.74-2.77
			C71.1,111.33,70.71,113.33,71.14,114.5z"/>
		<path class="st48" d="M60.34,68.02c3.26,0.35,3.93,2.61,4.3,4.92c0.31,1.97-0.67,3.13-2.78,3.13c-1.95,0-4.12-0.41-3.7-2.75
			C58.47,71.54,57.97,68.9,60.34,68.02z"/>
		<path class="st49" d="M58.51,59.47c0.34,1.5-0.14,2.33-1.61,2.44c-1.77,0.13-2.19-0.93-2.21-2.43c-0.02-1.52,0.02-3.36,1.79-3.49
			C59.01,55.81,57.37,58.63,58.51,59.47z"/>
		<path class="st21" d="M65.19,49.24c1.41,0.26,3.55,0.84,3.54,3.66c-0.01,2.58-1.58,4.03-4.05,4.03c-3.1,0-2.21-2.77-2.51-4.46
			C61.9,50.95,61.64,48.88,65.19,49.24z"/>
		<path class="st50" d="M96.45,97.76c-1.29-0.06-1.92-0.56-1.76-1.5c0.31-1.82,1.53-2.83,3.33-2.96c1.11-0.08,1.93,0.68,1.76,1.78
			C99.48,97.09,97.41,96.94,96.45,97.76z"/>
		<path class="st51" d="M62.33,45.17c-2.26,0.02-2.58-2.23-3.85-3.37c-0.67-0.6-1.41-1.53-0.61-2.56c0.67-0.87,1.71-0.83,2.69-0.78
			c1.18,0.06,1.78,0.73,1.78,1.87c0.01,1.63-0.05,3.26-0.08,4.89C62.27,45.22,62.33,45.17,62.33,45.17z"/>
		<path class="st1" d="M86.44,218.89c2.34-3.54,3.08-9.95,1.53-13.43c-4.43-9.97-11.19-9.85-19.25-24.34
			c3.11,13.7,13.65,24.1,16.71,37.78C85.77,218.89,86.1,218.89,86.44,218.89z"/>
		<path class="st22" d="M126.61,206.04c0,3.96,2.64,6.03,2.53,9.27c-0.04,1.29-1.83,3.32-3.13,3.39c-1.24,0.07-1.63-0.99-1.95-1.95
			C122.58,212.27,123.25,209.34,126.61,206.04z"/>
	</g>
</g>
</svg>
